<?xml version="1.0" encoding="utf-8"?>
<!-- Svg Vector Icons : http://www.onlinewebfonts.com/icon -->
<!DOCTYPE svg PUBLIC "-//W3C//DTD SVG 1.1//EN" "http://www.w3.org/Graphics/SVG/1.1/DTD/svg11.dtd">
<svg version="1.1" xmlns="http://www.w3.org/2000/svg" xmlns:xlink="http://www.w3.org/1999/xlink" x="0px" y="0px" viewBox="0 0 256 256" enable-background="new 0 0 256 256" xml:space="preserve">
<metadata> Svg Vector Icons : http://www.onlinewebfonts.com/icon </metadata>
<g><g><path fill="#000000" d="M143.9,92.4H115c-0.1,0-0.1,0-0.1,0.1v29.3c0,0.1,0,0.1,0.1,0.1h28.9c0.1,0,0.1,0,0.1-0.1V92.5C144,92.4,144,92.4,143.9,92.4z"/><path fill="#000000" d="M143.9,151.4H115c-0.1,0-0.1,0-0.1,0.1v29.3c0,0.1,0,0.1,0.1,0.1h28.9c0.1,0,0.1,0,0.1-0.1v-29.3C144,151.4,144,151.4,143.9,151.4z"/><path fill="#000000" d="M245.5,41.7h-72.4V29.2c0-0.4-0.3-0.7-0.7-0.7h-16c-0.4,0-0.7,0.3-0.7,0.7v12.5h-55.3V29.2c0-0.4-0.3-0.7-0.7-0.7h-16c-0.4,0-0.7,0.3-0.7,0.7v12.5H10.5c-0.3,0-0.5,0.2-0.5,0.5v184.9c0,0.3,0.2,0.5,0.5,0.5h235c0.3,0,0.5-0.2,0.5-0.5V42.2C246,41.9,245.8,41.7,245.5,41.7z M228.5,206.7c0,0.1-0.1,0.2-0.2,0.2H27.7c-0.1,0-0.2-0.1-0.2-0.2v-147c0-0.1,0.1-0.2,0.2-0.2h55.1v9.1c0,0.4,0.3,0.7,0.7,0.7h16c0.4,0,0.7-0.3,0.7-0.7v-9.1h55.4v9.1c0,0.4,0.3,0.7,0.7,0.7h16c0.4,0,0.7-0.3,0.7-0.7v-9.1h55.1c0.1,0,0.2,0.1,0.2,0.2L228.5,206.7L228.5,206.7z"/><path fill="#000000" d="M202.2,151.4h-28.9c-0.1,0-0.1,0-0.1,0.1v29.3c0,0.1,0,0.1,0.1,0.1h28.9c0.1,0,0.1,0,0.1-0.1v-29.3C202.3,151.4,202.2,151.4,202.2,151.4z"/><path fill="#000000" d="M85.8,151.5c0-0.1,0-0.1-0.1-0.1l0,0H56.7c-0.1,0-0.1,0-0.1,0.1v29.3c0,0.1,0,0.1,0.1,0.1h28.9l0,0c0.1,0,0.1,0,0.1-0.1l0,0V151.5z"/><path fill="#000000" d="M85.8,92.5c0-0.1,0-0.1-0.1-0.1l0,0H56.7c-0.1,0-0.1,0-0.1,0.1v29.3c0,0.1,0,0.1,0.1,0.1h28.9l0,0c0.1,0,0.1,0,0.1-0.1l0,0V92.5z"/><path fill="#000000" d="M202.2,92.4h-28.9c-0.1,0-0.1,0-0.1,0.1v29.3c0,0.1,0,0.1,0.1,0.1h28.9c0.1,0,0.1,0,0.1-0.1V92.5C202.3,92.4,202.2,92.4,202.2,92.4z"/></g></g>
</svg>