<svg width="24" height="24" viewBox="0 0 24 24" fill="none" xmlns="http://www.w3.org/2000/svg">
<path fill-rule="evenodd" clip-rule="evenodd" d="M5 9C6.10457 9 7 8.10457 7 7C7 5.89543 6.10457 5 5 5C3.89543 5 3 5.89543 3 7C3 8.10457 3.89543 9 5 9ZM5.00001 7.85715C5.47339 7.85715 5.85715 7.47339 5.85715 7.00001C5.85715 6.52662 5.47339 6.14286 5.00001 6.14286C4.52662 6.14286 4.14286 6.52662 4.14286 7.00001C4.14286 7.47339 4.52662 7.85715 5.00001 7.85715Z" fill="black"/>
<path fill-rule="evenodd" clip-rule="evenodd" d="M5 14C6.10457 14 7 13.1046 7 12C7 10.8954 6.10457 10 5 10C3.89543 10 3 10.8954 3 12C3 13.1046 3.89543 14 5 14ZM5.00001 12.8571C5.47339 12.8571 5.85715 12.4734 5.85715 12C5.85715 11.5266 5.47339 11.1429 5.00001 11.1429C4.52662 11.1429 4.14286 11.5266 4.14286 12C4.14286 12.4734 4.52662 12.8571 5.00001 12.8571Z" fill="black"/>
<path fill-rule="evenodd" clip-rule="evenodd" d="M7 17C7 18.1046 6.10457 19 5 19C3.89543 19 3 18.1046 3 17C3 15.8954 3.89543 15 5 15C6.10457 15 7 15.8954 7 17ZM5.85715 17C5.85715 17.4734 5.47339 17.8571 5.00001 17.8571C4.52662 17.8571 4.14286 17.4734 4.14286 17C4.14286 16.5266 4.52662 16.1429 5.00001 16.1429C5.47339 16.1429 5.85715 16.5266 5.85715 17Z" fill="black"/>
<path d="M9 7C9 6.44772 9.44772 6 10 6H19C19.5523 6 20 6.44772 20 7C20 7.55228 19.5523 8 19 8H10C9.44772 8 9 7.55228 9 7Z" fill="black"/>
<path d="M9 12C9 11.4477 9.44772 11 10 11H19C19.5523 11 20 11.4477 20 12C20 12.5523 19.5523 13 19 13H10C9.44772 13 9 12.5523 9 12Z" fill="black"/>
<path d="M9 17C9 16.4477 9.44772 16 10 16H19C19.5523 16 20 16.4477 20 17C20 17.5523 19.5523 18 19 18H10C9.44772 18 9 17.5523 9 17Z" fill="black"/>
</svg>
